<mxfile host="65bd71144e">
    <diagram id="qrTr4JAQBh0TrrUGPuTd" name="第 1 页">
        <mxGraphModel dx="2460" dy="367" grid="1" gridSize="10" guides="1" tooltips="1" connect="1" arrows="1" fold="1" page="1" pageScale="1" pageWidth="1169" pageHeight="827" math="0" shadow="0">
            <root>
                <mxCell id="0"/>
                <mxCell id="1" parent="0"/>
                <mxCell id="12" value="10" style="rounded=1;whiteSpace=wrap;html=1;" parent="1" vertex="1">
                    <mxGeometry x="-310" y="95" width="120" height="60" as="geometry"/>
                </mxCell>
                <mxCell id="16" style="edgeStyle=none;html=1;entryX=0;entryY=0.5;entryDx=0;entryDy=0;" parent="1" source="14" target="12" edge="1">
                    <mxGeometry relative="1" as="geometry"/>
                </mxCell>
                <mxCell id="17" style="edgeStyle=none;html=1;entryX=0;entryY=0.5;entryDx=0;entryDy=0;" parent="1" source="14" target="15" edge="1">
                    <mxGeometry relative="1" as="geometry"/>
                </mxCell>
                <mxCell id="14" value="0x001C" style="rounded=1;whiteSpace=wrap;html=1;arcSize=13;" parent="1" vertex="1">
                    <mxGeometry x="-500" y="165" width="120" height="60" as="geometry"/>
                </mxCell>
                <mxCell id="15" value="20" style="rounded=1;whiteSpace=wrap;html=1;" parent="1" vertex="1">
                    <mxGeometry x="-310" y="215" width="120" height="60" as="geometry"/>
                </mxCell>
                <mxCell id="18" value="a" style="text;html=1;align=center;verticalAlign=middle;resizable=0;points=[];autosize=1;strokeColor=none;fillColor=none;" parent="1" vertex="1">
                    <mxGeometry x="-300" y="65" width="30" height="30" as="geometry"/>
                </mxCell>
                <mxCell id="19" value="b" style="text;html=1;align=center;verticalAlign=middle;resizable=0;points=[];autosize=1;strokeColor=none;fillColor=none;" parent="1" vertex="1">
                    <mxGeometry x="-310" y="185" width="30" height="30" as="geometry"/>
                </mxCell>
                <mxCell id="20" value="0x001" style="text;html=1;align=center;verticalAlign=middle;resizable=0;points=[];autosize=1;strokeColor=none;fillColor=none;" parent="1" vertex="1">
                    <mxGeometry x="-250" y="70" width="60" height="30" as="geometry"/>
                </mxCell>
                <mxCell id="21" value="0x005" style="text;html=1;align=center;verticalAlign=middle;resizable=0;points=[];autosize=1;strokeColor=none;fillColor=none;" parent="1" vertex="1">
                    <mxGeometry x="-250" y="185" width="60" height="30" as="geometry"/>
                </mxCell>
                <mxCell id="22" value="const int *p" style="text;html=1;align=center;verticalAlign=middle;resizable=0;points=[];autosize=1;strokeColor=none;fillColor=none;" parent="1" vertex="1">
                    <mxGeometry x="-500" y="135" width="80" height="30" as="geometry"/>
                </mxCell>
                <mxCell id="24" value="&lt;div style=&quot;color: rgb(186, 190, 216); background-color: rgb(15, 17, 26); font-family: consolas, Consolas, &amp;quot;Courier New&amp;quot;, monospace; font-weight: normal; font-size: 19.6px; line-height: 26px;&quot;&gt;&lt;div&gt;&lt;span style=&quot;color: #464b5d;font-style: italic;&quot;&gt;&amp;nbsp; &amp;nbsp; // 常量指针&lt;/span&gt;&lt;/div&gt;&lt;div&gt;&lt;span style=&quot;color: #babed8;&quot;&gt;&amp;nbsp; &amp;nbsp; &lt;/span&gt;&lt;span style=&quot;color: #c792ea;&quot;&gt;int&lt;/span&gt;&lt;span style=&quot;color: #babed8;&quot;&gt; &lt;/span&gt;&lt;span style=&quot;color: #babed8;&quot;&gt;a&lt;/span&gt;&lt;span style=&quot;color: #babed8;&quot;&gt; &lt;/span&gt;&lt;span style=&quot;color: #89ddff;&quot;&gt;=&lt;/span&gt;&lt;span style=&quot;color: #babed8;&quot;&gt; &lt;/span&gt;&lt;span style=&quot;color: #f78c6c;&quot;&gt;10&lt;/span&gt;&lt;span style=&quot;color: #89ddff;&quot;&gt;;&lt;/span&gt;&lt;/div&gt;&lt;div&gt;&lt;span style=&quot;color: #babed8;&quot;&gt;&amp;nbsp; &amp;nbsp; &lt;/span&gt;&lt;span style=&quot;color: #c792ea;&quot;&gt;int&lt;/span&gt;&lt;span style=&quot;color: #babed8;&quot;&gt; &lt;/span&gt;&lt;span style=&quot;color: #babed8;&quot;&gt;b&lt;/span&gt;&lt;span style=&quot;color: #babed8;&quot;&gt; &lt;/span&gt;&lt;span style=&quot;color: #89ddff;&quot;&gt;=&lt;/span&gt;&lt;span style=&quot;color: #babed8;&quot;&gt; &lt;/span&gt;&lt;span style=&quot;color: #f78c6c;&quot;&gt;20&lt;/span&gt;&lt;span style=&quot;color: #89ddff;&quot;&gt;;&lt;/span&gt;&lt;/div&gt;&lt;div&gt;&lt;span style=&quot;color: #babed8;&quot;&gt;&amp;nbsp; &amp;nbsp; &lt;/span&gt;&lt;span style=&quot;color: #c792ea;&quot;&gt;const&lt;/span&gt;&lt;span style=&quot;color: #babed8;&quot;&gt; &lt;/span&gt;&lt;span style=&quot;color: #c792ea;&quot;&gt;int&lt;/span&gt;&lt;span style=&quot;color: #babed8;&quot;&gt; &lt;/span&gt;&lt;span style=&quot;color: #89ddff;&quot;&gt;*&lt;/span&gt;&lt;span style=&quot;color: #babed8;&quot;&gt;p&lt;/span&gt;&lt;span style=&quot;color: #babed8;&quot;&gt; &lt;/span&gt;&lt;span style=&quot;color: #89ddff;&quot;&gt;=&lt;/span&gt;&lt;span style=&quot;color: #babed8;&quot;&gt; &lt;/span&gt;&lt;span style=&quot;color: #89ddff;&quot;&gt;&amp;amp;&lt;/span&gt;&lt;span style=&quot;color: #babed8;&quot;&gt;a&lt;/span&gt;&lt;span style=&quot;color: #89ddff;&quot;&gt;;&lt;/span&gt;&lt;/div&gt;&lt;div&gt;&lt;span style=&quot;color: #464b5d;font-style: italic;&quot;&gt;&amp;nbsp; &amp;nbsp; // 指针指向可以改变，指向的值不可以改变&lt;/span&gt;&lt;/div&gt;&lt;div&gt;&lt;span style=&quot;color: #babed8;&quot;&gt;&amp;nbsp; &amp;nbsp; &lt;/span&gt;&lt;span style=&quot;color: #babed8;&quot;&gt;p&lt;/span&gt;&lt;span style=&quot;color: #babed8;&quot;&gt; &lt;/span&gt;&lt;span style=&quot;color: #89ddff;&quot;&gt;=&lt;/span&gt;&lt;span style=&quot;color: #babed8;&quot;&gt; &lt;/span&gt;&lt;span style=&quot;color: #89ddff;&quot;&gt;&amp;amp;&lt;/span&gt;&lt;span style=&quot;color: #babed8;&quot;&gt;b&lt;/span&gt;&lt;span style=&quot;color: #89ddff;&quot;&gt;;&lt;/span&gt;&lt;span style=&quot;color: #464b5d;font-style: italic;&quot;&gt; // 指针指向可以改变&lt;/span&gt;&lt;/div&gt;&lt;div&gt;&lt;span style=&quot;color: #464b5d;font-style: italic;&quot;&gt;&amp;nbsp; &amp;nbsp; // *p = 100;//指针指向的值不可以改变&lt;/span&gt;&lt;/div&gt;&lt;/div&gt;" style="text;whiteSpace=wrap;html=1;" parent="1" vertex="1">
                    <mxGeometry x="-1044" y="95" width="460" height="210" as="geometry"/>
                </mxCell>
                <mxCell id="26" value="&lt;div style=&quot;color: rgb(186, 190, 216); background-color: rgb(15, 17, 26); font-family: consolas, Consolas, &amp;quot;Courier New&amp;quot;, monospace; font-weight: normal; font-size: 19.6px; line-height: 26px;&quot;&gt;&lt;div&gt;&lt;span style=&quot;color: #464b5d;font-style: italic;&quot;&gt;&amp;nbsp; &amp;nbsp; // 指针常量&lt;/span&gt;&lt;/div&gt;&lt;div&gt;&lt;span style=&quot;color: #464b5d;font-style: italic;&quot;&gt;&amp;nbsp; &amp;nbsp; // 指针指向不可以改变，指向的值可以改变&lt;/span&gt;&lt;/div&gt;&lt;div&gt;&lt;span style=&quot;color: #babed8;&quot;&gt;&amp;nbsp; &amp;nbsp; &lt;/span&gt;&lt;span style=&quot;color: #c792ea;&quot;&gt;int&lt;/span&gt;&lt;span style=&quot;color: #babed8;&quot;&gt; &lt;/span&gt;&lt;span style=&quot;color: #89ddff;&quot;&gt;*&lt;/span&gt;&lt;span style=&quot;color: #c792ea;&quot;&gt;const&lt;/span&gt;&lt;span style=&quot;color: #babed8;&quot;&gt; &lt;/span&gt;&lt;span style=&quot;color: #babed8;&quot;&gt;p&lt;/span&gt;&lt;span style=&quot;color: #babed8;&quot;&gt; &lt;/span&gt;&lt;span style=&quot;color: #89ddff;&quot;&gt;=&lt;/span&gt;&lt;span style=&quot;color: #babed8;&quot;&gt; &lt;/span&gt;&lt;span style=&quot;color: #89ddff;&quot;&gt;&amp;amp;&lt;/span&gt;&lt;span style=&quot;color: #babed8;&quot;&gt;a&lt;/span&gt;&lt;span style=&quot;color: #89ddff;&quot;&gt;;&lt;/span&gt;&lt;/div&gt;&lt;div&gt;&lt;span style=&quot;color: #464b5d;font-style: italic;&quot;&gt;&amp;nbsp; &amp;nbsp; // p = &amp;amp;b; // 指针指向不可以改变&lt;/span&gt;&lt;/div&gt;&lt;div&gt;&lt;span style=&quot;color: #babed8;&quot;&gt;&amp;nbsp; &amp;nbsp; &lt;/span&gt;&lt;span style=&quot;color: #89ddff;&quot;&gt;*&lt;/span&gt;&lt;span style=&quot;color: #babed8;&quot;&gt;p&lt;/span&gt;&lt;span style=&quot;color: #babed8;&quot;&gt; &lt;/span&gt;&lt;span style=&quot;color: #89ddff;&quot;&gt;=&lt;/span&gt;&lt;span style=&quot;color: #babed8;&quot;&gt; &lt;/span&gt;&lt;span style=&quot;color: #f78c6c;&quot;&gt;100&lt;/span&gt;&lt;span style=&quot;color: #89ddff;&quot;&gt;;&lt;/span&gt;&lt;span style=&quot;color: #464b5d;font-style: italic;&quot;&gt;//指针指向的值可以改变&lt;/span&gt;&lt;/div&gt;&lt;/div&gt;" style="text;whiteSpace=wrap;html=1;" parent="1" vertex="1">
                    <mxGeometry x="-1060" y="430" width="460" height="150" as="geometry"/>
                </mxCell>
                <mxCell id="27" value="由原来的10改为100&lt;br&gt;100" style="rounded=1;whiteSpace=wrap;html=1;" parent="1" vertex="1">
                    <mxGeometry x="-310" y="400" width="120" height="60" as="geometry"/>
                </mxCell>
                <mxCell id="28" style="edgeStyle=none;html=1;entryX=0;entryY=0.5;entryDx=0;entryDy=0;" parent="1" source="30" target="27" edge="1">
                    <mxGeometry relative="1" as="geometry"/>
                </mxCell>
                <mxCell id="30" value="0x001C" style="rounded=1;whiteSpace=wrap;html=1;arcSize=13;" parent="1" vertex="1">
                    <mxGeometry x="-500" y="470" width="120" height="60" as="geometry"/>
                </mxCell>
                <mxCell id="31" value="20" style="rounded=1;whiteSpace=wrap;html=1;" parent="1" vertex="1">
                    <mxGeometry x="-310" y="520" width="120" height="60" as="geometry"/>
                </mxCell>
                <mxCell id="32" value="b" style="text;html=1;align=center;verticalAlign=middle;resizable=0;points=[];autosize=1;strokeColor=none;fillColor=none;" parent="1" vertex="1">
                    <mxGeometry x="-300" y="490" width="30" height="30" as="geometry"/>
                </mxCell>
                <mxCell id="33" value="0x005" style="text;html=1;align=center;verticalAlign=middle;resizable=0;points=[];autosize=1;strokeColor=none;fillColor=none;" parent="1" vertex="1">
                    <mxGeometry x="-250" y="490" width="60" height="30" as="geometry"/>
                </mxCell>
                <mxCell id="34" value="int *const p" style="text;html=1;align=center;verticalAlign=middle;resizable=0;points=[];autosize=1;strokeColor=none;fillColor=none;" parent="1" vertex="1">
                    <mxGeometry x="-500" y="440" width="80" height="30" as="geometry"/>
                </mxCell>
                <mxCell id="35" value="a" style="text;html=1;align=center;verticalAlign=middle;resizable=0;points=[];autosize=1;strokeColor=none;fillColor=none;" parent="1" vertex="1">
                    <mxGeometry x="-310" y="370" width="30" height="30" as="geometry"/>
                </mxCell>
                <mxCell id="36" value="0x001" style="text;html=1;align=center;verticalAlign=middle;resizable=0;points=[];autosize=1;strokeColor=none;fillColor=none;" parent="1" vertex="1">
                    <mxGeometry x="-255" y="370" width="60" height="30" as="geometry"/>
                </mxCell>
            </root>
        </mxGraphModel>
    </diagram>
</mxfile>